# xmcd
#
# Track frame offsets:
#	150
#	12318
#	30827
#	52786
#	67843
#	77677
#	95085
#	106038
#	119999
#	135274
#	150065
#	167462
#	186445
#	198398
#	211997
#	228422
#	241983
#	257958
#	268102
#	280933
#	281898
#	282648
#
# Disc length: 3779
#
# Revision: 1
# Processed by: cddbd v1.5.1PL0 Copyright (c) Steve Scherf et al.
# Submitted via: VisiTrax 2.9.5.180 - For more info visit www.synapsa.com
# Normalized: r0:DSETVAR1
#
DISCID=330ec116
DTITLE=Various Artist - CDXMAS 1013B December 2000
DYEAR=2000
DGENRE=Christmas
TTITLE0=Tracy Byrd - Merry christmas from Texas y'all
TTITLE1=Montgomery Gentry - Merry christmas from the family
TTITLE2=Sara Evans - O come all ye faithful
TTITLE3=George Strait - Old time christmas
TTITLE4=Toby Keith - Old toy trains
TTITLE5=Joe Diffie - Praise and alleluia to the savior
TTITLE6=Jeff Foxworthy - Redneck 12 days of christmas
TTITLE7=Keith Harling - Santa's got a semi
TTITLE8=SHeDaisy - That's what I want for christmas
TTITLE9=Billy Gillman - Warm and fuzzy
TTITLE10=Martina McBride - What child is this
TTITLE11=Faith Hill - Where are you christmas
TTITLE12=Ricky Van Shelton - Winter wonderland
TTITLE13=Boris Karloff - You're a mean one Mr. Grinch
TTITLE14=Doug Wayne - Almost time for christmas
TTITLE15=Rick Simonelli - Christmas wouldn't be christmas without you
TTITLE16=Sandy Knox - Dear Santa
TTITLE17=Billy Hoffman - Santa drives an 18-wheeler
TTITLE18=4 Sisters and A Cousin - White christmas
TTITLE19=SHeDaisy - Holiday Liners
TTITLE20=SHeDaisy - Holiday Liners
TTITLE21=SHeDaisy - Holiday Liners
EXTD=
EXTT0=
EXTT1=
EXTT2=
EXTT3=
EXTT4=
EXTT5=
EXTT6=
EXTT7=
EXTT8=
EXTT9=
EXTT10=
EXTT11=
EXTT12=
EXTT13=
EXTT14=
EXTT15=
EXTT16=
EXTT17=
EXTT18=
EXTT19=
EXTT20=
EXTT21=
PLAYORDER=
